<svg xmlns="http://www.w3.org/2000/svg" xmlns:xlink="http://www.w3.org/1999/xlink" width="1024" zoomAndPan="magnify" viewBox="0 0 768 767.999994" height="1024" preserveAspectRatio="xMidYMid meet" version="1.0"><defs><g/><clipPath id="2e3d2c437a"><path d="M 0 0 L 768 0 L 768 768 L 0 768 Z M 0 0 " clip-rule="nonzero"/></clipPath><linearGradient x1="0" gradientTransform="matrix(3, 0, 0, 3, 0.000003, 0.00002)" y1="256" x2="256" gradientUnits="userSpaceOnUse" y2="0" id="36bfa271b4"><stop stop-opacity="1" stop-color="rgb(0%, 4.309082%, 12.939453%)" offset="0"/><stop stop-opacity="1" stop-color="rgb(0%, 4.309082%, 12.939453%)" offset="0.125"/><stop stop-opacity="1" stop-color="rgb(0%, 4.309082%, 12.939453%)" offset="0.140625"/><stop stop-opacity="1" stop-color="rgb(0%, 4.309082%, 12.939453%)" offset="0.148438"/><stop stop-opacity="1" stop-color="rgb(0%, 4.563904%, 13.414001%)" offset="0.152344"/><stop stop-opacity="1" stop-color="rgb(0%, 4.818726%, 13.890076%)" offset="0.15625"/><stop stop-opacity="1" stop-color="rgb(0%, 5.137634%, 14.483643%)" offset="0.160156"/><stop stop-opacity="1" stop-color="rgb(0%, 5.456543%, 15.078735%)" offset="0.164062"/><stop stop-opacity="1" stop-color="rgb(0%, 5.775452%, 15.672302%)" offset="0.167969"/><stop stop-opacity="1" stop-color="rgb(0%, 6.09436%, 16.267395%)" offset="0.171875"/><stop stop-opacity="1" stop-color="rgb(0%, 6.413269%, 16.860962%)" offset="0.175781"/><stop stop-opacity="1" stop-color="rgb(0%, 6.732178%, 17.456055%)" offset="0.179688"/><stop stop-opacity="1" stop-color="rgb(0%, 7.051086%, 18.049622%)" offset="0.183594"/><stop stop-opacity="1" stop-color="rgb(0%, 7.369995%, 18.644714%)" offset="0.1875"/><stop stop-opacity="1" stop-color="rgb(0%, 7.687378%, 19.238281%)" offset="0.191406"/><stop stop-opacity="1" stop-color="rgb(0%, 8.006287%, 19.833374%)" offset="0.195312"/><stop stop-opacity="1" stop-color="rgb(0%, 8.325195%, 20.426941%)" offset="0.199219"/><stop stop-opacity="1" stop-color="rgb(0%, 8.644104%, 21.022034%)" offset="0.203125"/><stop stop-opacity="1" stop-color="rgb(0%, 8.963013%, 21.617126%)" offset="0.207031"/><stop stop-opacity="1" stop-color="rgb(0%, 9.281921%, 22.212219%)" offset="0.210938"/><stop stop-opacity="1" stop-color="rgb(0%, 9.60083%, 22.805786%)" offset="0.214844"/><stop stop-opacity="1" stop-color="rgb(0%, 9.919739%, 23.400879%)" offset="0.21875"/><stop stop-opacity="1" stop-color="rgb(0%, 10.237122%, 23.994446%)" offset="0.222656"/><stop stop-opacity="1" stop-color="rgb(0%, 10.55603%, 24.589539%)" offset="0.226562"/><stop stop-opacity="1" stop-color="rgb(0%, 10.874939%, 25.183105%)" offset="0.230469"/><stop stop-opacity="1" stop-color="rgb(0%, 11.193848%, 25.778198%)" offset="0.234375"/><stop stop-opacity="1" stop-color="rgb(0%, 11.512756%, 26.371765%)" offset="0.238281"/><stop stop-opacity="1" stop-color="rgb(0%, 11.831665%, 26.966858%)" offset="0.242188"/><stop stop-opacity="1" stop-color="rgb(0%, 12.150574%, 27.560425%)" offset="0.246094"/><stop stop-opacity="1" stop-color="rgb(0%, 12.469482%, 28.155518%)" offset="0.25"/><stop stop-opacity="1" stop-color="rgb(0%, 12.788391%, 28.749084%)" offset="0.253906"/><stop stop-opacity="1" stop-color="rgb(0%, 13.1073%, 29.344177%)" offset="0.257812"/><stop stop-opacity="1" stop-color="rgb(0%, 13.424683%, 29.937744%)" offset="0.261719"/><stop stop-opacity="1" stop-color="rgb(0%, 13.743591%, 30.532837%)" offset="0.265625"/><stop stop-opacity="1" stop-color="rgb(0%, 14.0625%, 31.126404%)" offset="0.269531"/><stop stop-opacity="1" stop-color="rgb(0%, 14.381409%, 31.721497%)" offset="0.273438"/><stop stop-opacity="1" stop-color="rgb(0%, 14.700317%, 32.315063%)" offset="0.277344"/><stop stop-opacity="1" stop-color="rgb(0%, 15.019226%, 32.910156%)" offset="0.28125"/><stop stop-opacity="1" stop-color="rgb(0%, 15.338135%, 33.503723%)" offset="0.285156"/><stop stop-opacity="1" stop-color="rgb(0%, 15.657043%, 34.098816%)" offset="0.289062"/><stop stop-opacity="1" stop-color="rgb(0%, 15.975952%, 34.692383%)" offset="0.292969"/><stop stop-opacity="1" stop-color="rgb(0%, 16.294861%, 35.287476%)" offset="0.296875"/><stop stop-opacity="1" stop-color="rgb(0%, 16.612244%, 35.881042%)" offset="0.300781"/><stop stop-opacity="1" stop-color="rgb(0%, 16.931152%, 36.476135%)" offset="0.304688"/><stop stop-opacity="1" stop-color="rgb(0%, 17.250061%, 37.069702%)" offset="0.308594"/><stop stop-opacity="1" stop-color="rgb(0%, 17.56897%, 37.664795%)" offset="0.3125"/><stop stop-opacity="1" stop-color="rgb(0%, 17.887878%, 38.258362%)" offset="0.316406"/><stop stop-opacity="1" stop-color="rgb(0%, 18.206787%, 38.853455%)" offset="0.320312"/><stop stop-opacity="1" stop-color="rgb(0%, 18.525696%, 39.447021%)" offset="0.324219"/><stop stop-opacity="1" stop-color="rgb(0%, 18.844604%, 40.042114%)" offset="0.328125"/><stop stop-opacity="1" stop-color="rgb(0%, 19.163513%, 40.635681%)" offset="0.332031"/><stop stop-opacity="1" stop-color="rgb(0%, 19.482422%, 41.230774%)" offset="0.335938"/><stop stop-opacity="1" stop-color="rgb(0%, 19.799805%, 41.825867%)" offset="0.339844"/><stop stop-opacity="1" stop-color="rgb(0%, 20.118713%, 42.420959%)" offset="0.34375"/><stop stop-opacity="1" stop-color="rgb(0%, 20.437622%, 43.014526%)" offset="0.347656"/><stop stop-opacity="1" stop-color="rgb(0%, 20.756531%, 43.609619%)" offset="0.351562"/><stop stop-opacity="1" stop-color="rgb(0%, 21.075439%, 44.203186%)" offset="0.355469"/><stop stop-opacity="1" stop-color="rgb(0%, 21.394348%, 44.798279%)" offset="0.359375"/><stop stop-opacity="1" stop-color="rgb(0%, 21.713257%, 45.391846%)" offset="0.363281"/><stop stop-opacity="1" stop-color="rgb(0%, 22.032166%, 45.986938%)" offset="0.367188"/><stop stop-opacity="1" stop-color="rgb(0%, 22.351074%, 46.580505%)" offset="0.371094"/><stop stop-opacity="1" stop-color="rgb(0%, 22.669983%, 47.175598%)" offset="0.375"/><stop stop-opacity="1" stop-color="rgb(0%, 22.987366%, 47.769165%)" offset="0.378906"/><stop stop-opacity="1" stop-color="rgb(0%, 23.306274%, 48.364258%)" offset="0.382812"/><stop stop-opacity="1" stop-color="rgb(0%, 23.625183%, 48.957825%)" offset="0.386719"/><stop stop-opacity="1" stop-color="rgb(0%, 23.944092%, 49.552917%)" offset="0.390625"/><stop stop-opacity="1" stop-color="rgb(0%, 24.263%, 50.146484%)" offset="0.394531"/><stop stop-opacity="1" stop-color="rgb(0%, 24.581909%, 50.741577%)" offset="0.398438"/><stop stop-opacity="1" stop-color="rgb(0.465393%, 25.25177%, 51.171875%)" offset="0.402344"/><stop stop-opacity="1" stop-color="rgb(0.930786%, 25.921631%, 51.603699%)" offset="0.40625"/><stop stop-opacity="1" stop-color="rgb(1.512146%, 26.679993%, 51.994324%)" offset="0.410156"/><stop stop-opacity="1" stop-color="rgb(2.095032%, 27.438354%, 52.384949%)" offset="0.414062"/><stop stop-opacity="1" stop-color="rgb(2.676392%, 28.196716%, 52.775574%)" offset="0.417969"/><stop stop-opacity="1" stop-color="rgb(3.259277%, 28.955078%, 53.166199%)" offset="0.421875"/><stop stop-opacity="1" stop-color="rgb(3.840637%, 29.71344%, 53.556824%)" offset="0.425781"/><stop stop-opacity="1" stop-color="rgb(4.421997%, 30.471802%, 53.947449%)" offset="0.429688"/><stop stop-opacity="1" stop-color="rgb(5.003357%, 31.230164%, 54.338074%)" offset="0.433594"/><stop stop-opacity="1" stop-color="rgb(5.586243%, 31.988525%, 54.728699%)" offset="0.4375"/><stop stop-opacity="1" stop-color="rgb(6.167603%, 32.745361%, 55.119324%)" offset="0.441406"/><stop stop-opacity="1" stop-color="rgb(6.750488%, 33.503723%, 55.509949%)" offset="0.445312"/><stop stop-opacity="1" stop-color="rgb(7.331848%, 34.262085%, 55.900574%)" offset="0.449219"/><stop stop-opacity="1" stop-color="rgb(7.914734%, 35.020447%, 56.291199%)" offset="0.453125"/><stop stop-opacity="1" stop-color="rgb(8.496094%, 35.778809%, 56.681824%)" offset="0.457031"/><stop stop-opacity="1" stop-color="rgb(9.078979%, 36.53717%, 57.072449%)" offset="0.460938"/><stop stop-opacity="1" stop-color="rgb(9.660339%, 37.295532%, 57.463074%)" offset="0.464844"/><stop stop-opacity="1" stop-color="rgb(10.243225%, 38.053894%, 57.853699%)" offset="0.46875"/><stop stop-opacity="1" stop-color="rgb(10.824585%, 38.812256%, 58.244324%)" offset="0.472656"/><stop stop-opacity="1" stop-color="rgb(11.407471%, 39.570618%, 58.634949%)" offset="0.476562"/><stop stop-opacity="1" stop-color="rgb(11.988831%, 40.327454%, 59.025574%)" offset="0.480469"/><stop stop-opacity="1" stop-color="rgb(12.571716%, 41.085815%, 59.416199%)" offset="0.484375"/><stop stop-opacity="1" stop-color="rgb(13.153076%, 41.844177%, 59.806824%)" offset="0.488281"/><stop stop-opacity="1" stop-color="rgb(13.734436%, 42.602539%, 60.197449%)" offset="0.492188"/><stop stop-opacity="1" stop-color="rgb(14.315796%, 43.360901%, 60.588074%)" offset="0.496094"/><stop stop-opacity="1" stop-color="rgb(14.898682%, 44.119263%, 60.978699%)" offset="0.5"/><stop stop-opacity="1" stop-color="rgb(15.480042%, 44.877625%, 61.369324%)" offset="0.503906"/><stop stop-opacity="1" stop-color="rgb(16.062927%, 45.635986%, 61.759949%)" offset="0.507812"/><stop stop-opacity="1" stop-color="rgb(16.644287%, 46.394348%, 62.150574%)" offset="0.511719"/><stop stop-opacity="1" stop-color="rgb(17.227173%, 47.15271%, 62.541199%)" offset="0.515625"/><stop stop-opacity="1" stop-color="rgb(17.808533%, 47.909546%, 62.931824%)" offset="0.519531"/><stop stop-opacity="1" stop-color="rgb(18.391418%, 48.667908%, 63.322449%)" offset="0.523438"/><stop stop-opacity="1" stop-color="rgb(18.972778%, 49.42627%, 63.713074%)" offset="0.527344"/><stop stop-opacity="1" stop-color="rgb(19.555664%, 50.184631%, 64.103699%)" offset="0.53125"/><stop stop-opacity="1" stop-color="rgb(20.137024%, 50.942993%, 64.494324%)" offset="0.535156"/><stop stop-opacity="1" stop-color="rgb(20.71991%, 51.701355%, 64.884949%)" offset="0.539062"/><stop stop-opacity="1" stop-color="rgb(21.30127%, 52.459717%, 65.275574%)" offset="0.542969"/><stop stop-opacity="1" stop-color="rgb(21.884155%, 53.218079%, 65.666199%)" offset="0.546875"/><stop stop-opacity="1" stop-color="rgb(22.465515%, 53.97644%, 66.056824%)" offset="0.550781"/><stop stop-opacity="1" stop-color="rgb(23.048401%, 54.734802%, 66.447449%)" offset="0.554688"/><stop stop-opacity="1" stop-color="rgb(23.629761%, 55.491638%, 66.838074%)" offset="0.558594"/><stop stop-opacity="1" stop-color="rgb(24.211121%, 56.25%, 67.228699%)" offset="0.5625"/><stop stop-opacity="1" stop-color="rgb(24.79248%, 57.008362%, 67.619324%)" offset="0.566406"/><stop stop-opacity="1" stop-color="rgb(25.375366%, 57.766724%, 68.009949%)" offset="0.570312"/><stop stop-opacity="1" stop-color="rgb(25.956726%, 58.525085%, 68.400574%)" offset="0.574219"/><stop stop-opacity="1" stop-color="rgb(26.539612%, 59.283447%, 68.791199%)" offset="0.578125"/><stop stop-opacity="1" stop-color="rgb(27.120972%, 60.041809%, 69.181824%)" offset="0.582031"/><stop stop-opacity="1" stop-color="rgb(27.703857%, 60.800171%, 69.572449%)" offset="0.585938"/><stop stop-opacity="1" stop-color="rgb(28.285217%, 61.557007%, 69.963074%)" offset="0.589844"/><stop stop-opacity="1" stop-color="rgb(28.868103%, 62.315369%, 70.353699%)" offset="0.59375"/><stop stop-opacity="1" stop-color="rgb(29.553223%, 62.980652%, 70.599365%)" offset="0.597656"/><stop stop-opacity="1" stop-color="rgb(30.238342%, 63.647461%, 70.846558%)" offset="0.601562"/><stop stop-opacity="1" stop-color="rgb(31.333923%, 63.94043%, 70.515442%)" offset="0.605469"/><stop stop-opacity="1" stop-color="rgb(32.43103%, 64.234924%, 70.184326%)" offset="0.609375"/><stop stop-opacity="1" stop-color="rgb(33.528137%, 64.527893%, 69.85321%)" offset="0.613281"/><stop stop-opacity="1" stop-color="rgb(34.625244%, 64.822388%, 69.523621%)" offset="0.617188"/><stop stop-opacity="1" stop-color="rgb(35.722351%, 65.116882%, 69.192505%)" offset="0.621094"/><stop stop-opacity="1" stop-color="rgb(36.819458%, 65.411377%, 68.861389%)" offset="0.625"/><stop stop-opacity="1" stop-color="rgb(37.916565%, 65.704346%, 68.530273%)" offset="0.628906"/><stop stop-opacity="1" stop-color="rgb(39.013672%, 65.99884%, 68.199158%)" offset="0.632812"/><stop stop-opacity="1" stop-color="rgb(40.109253%, 66.293335%, 67.868042%)" offset="0.636719"/><stop stop-opacity="1" stop-color="rgb(41.20636%, 66.58783%, 67.536926%)" offset="0.640625"/><stop stop-opacity="1" stop-color="rgb(42.303467%, 66.880798%, 67.205811%)" offset="0.644531"/><stop stop-opacity="1" stop-color="rgb(43.400574%, 67.175293%, 66.876221%)" offset="0.648438"/><stop stop-opacity="1" stop-color="rgb(44.497681%, 67.469788%, 66.545105%)" offset="0.652344"/><stop stop-opacity="1" stop-color="rgb(45.594788%, 67.764282%, 66.213989%)" offset="0.65625"/><stop stop-opacity="1" stop-color="rgb(46.690369%, 68.057251%, 65.882874%)" offset="0.660156"/><stop stop-opacity="1" stop-color="rgb(47.787476%, 68.351746%, 65.551758%)" offset="0.664062"/><stop stop-opacity="1" stop-color="rgb(48.884583%, 68.64624%, 65.220642%)" offset="0.667969"/><stop stop-opacity="1" stop-color="rgb(49.981689%, 68.940735%, 64.889526%)" offset="0.671875"/><stop stop-opacity="1" stop-color="rgb(51.078796%, 69.233704%, 64.558411%)" offset="0.675781"/><stop stop-opacity="1" stop-color="rgb(52.175903%, 69.528198%, 64.228821%)" offset="0.679688"/><stop stop-opacity="1" stop-color="rgb(53.271484%, 69.821167%, 63.897705%)" offset="0.683594"/><stop stop-opacity="1" stop-color="rgb(54.368591%, 70.115662%, 63.566589%)" offset="0.6875"/><stop stop-opacity="1" stop-color="rgb(55.465698%, 70.410156%, 63.235474%)" offset="0.691406"/><stop stop-opacity="1" stop-color="rgb(56.562805%, 70.704651%, 62.904358%)" offset="0.695312"/><stop stop-opacity="1" stop-color="rgb(57.659912%, 70.99762%, 62.573242%)" offset="0.699219"/><stop stop-opacity="1" stop-color="rgb(58.757019%, 71.292114%, 62.242126%)" offset="0.703125"/><stop stop-opacity="1" stop-color="rgb(59.854126%, 71.586609%, 61.911011%)" offset="0.707031"/><stop stop-opacity="1" stop-color="rgb(60.951233%, 71.881104%, 61.579895%)" offset="0.710938"/><stop stop-opacity="1" stop-color="rgb(62.046814%, 72.174072%, 61.248779%)" offset="0.714844"/><stop stop-opacity="1" stop-color="rgb(63.143921%, 72.468567%, 60.919189%)" offset="0.71875"/><stop stop-opacity="1" stop-color="rgb(64.241028%, 72.763062%, 60.588074%)" offset="0.722656"/><stop stop-opacity="1" stop-color="rgb(65.338135%, 73.057556%, 60.256958%)" offset="0.726562"/><stop stop-opacity="1" stop-color="rgb(66.435242%, 73.350525%, 59.925842%)" offset="0.730469"/><stop stop-opacity="1" stop-color="rgb(67.532349%, 73.64502%, 59.594727%)" offset="0.734375"/><stop stop-opacity="1" stop-color="rgb(68.62793%, 73.937988%, 59.263611%)" offset="0.738281"/><stop stop-opacity="1" stop-color="rgb(69.725037%, 74.232483%, 58.932495%)" offset="0.742188"/><stop stop-opacity="1" stop-color="rgb(70.822144%, 74.526978%, 58.601379%)" offset="0.746094"/><stop stop-opacity="1" stop-color="rgb(71.91925%, 74.821472%, 58.27179%)" offset="0.75"/><stop stop-opacity="1" stop-color="rgb(73.016357%, 75.114441%, 57.940674%)" offset="0.753906"/><stop stop-opacity="1" stop-color="rgb(74.113464%, 75.408936%, 57.609558%)" offset="0.757812"/><stop stop-opacity="1" stop-color="rgb(75.209045%, 75.70343%, 57.278442%)" offset="0.761719"/><stop stop-opacity="1" stop-color="rgb(76.306152%, 75.997925%, 56.947327%)" offset="0.765625"/><stop stop-opacity="1" stop-color="rgb(77.403259%, 76.290894%, 56.616211%)" offset="0.769531"/><stop stop-opacity="1" stop-color="rgb(78.500366%, 76.585388%, 56.285095%)" offset="0.773438"/><stop stop-opacity="1" stop-color="rgb(79.597473%, 76.879883%, 55.953979%)" offset="0.777344"/><stop stop-opacity="1" stop-color="rgb(80.69458%, 77.174377%, 55.62439%)" offset="0.78125"/><stop stop-opacity="1" stop-color="rgb(81.790161%, 77.467346%, 55.293274%)" offset="0.785156"/><stop stop-opacity="1" stop-color="rgb(82.887268%, 77.761841%, 54.962158%)" offset="0.789062"/><stop stop-opacity="1" stop-color="rgb(83.984375%, 78.05481%, 54.631042%)" offset="0.792969"/><stop stop-opacity="1" stop-color="rgb(85.081482%, 78.349304%, 54.299927%)" offset="0.796875"/><stop stop-opacity="1" stop-color="rgb(86.178589%, 78.643799%, 53.968811%)" offset="0.800781"/><stop stop-opacity="1" stop-color="rgb(87.275696%, 78.938293%, 53.637695%)" offset="0.804688"/><stop stop-opacity="1" stop-color="rgb(88.372803%, 79.231262%, 53.30658%)" offset="0.808594"/><stop stop-opacity="1" stop-color="rgb(89.46991%, 79.525757%, 52.97699%)" offset="0.8125"/><stop stop-opacity="1" stop-color="rgb(90.565491%, 79.820251%, 52.645874%)" offset="0.816406"/><stop stop-opacity="1" stop-color="rgb(91.662598%, 80.114746%, 52.314758%)" offset="0.820312"/><stop stop-opacity="1" stop-color="rgb(92.759705%, 80.407715%, 51.983643%)" offset="0.824219"/><stop stop-opacity="1" stop-color="rgb(93.856812%, 80.702209%, 51.652527%)" offset="0.828125"/><stop stop-opacity="1" stop-color="rgb(94.953918%, 80.996704%, 51.321411%)" offset="0.832031"/><stop stop-opacity="1" stop-color="rgb(96.051025%, 81.291199%, 50.990295%)" offset="0.835938"/><stop stop-opacity="1" stop-color="rgb(97.146606%, 81.584167%, 50.65918%)" offset="0.839844"/><stop stop-opacity="1" stop-color="rgb(98.243713%, 81.878662%, 50.328064%)" offset="0.84375"/><stop stop-opacity="1" stop-color="rgb(99.121094%, 82.113647%, 50.062561%)" offset="0.847656"/><stop stop-opacity="1" stop-color="rgb(100%, 82.348633%, 49.798584%)" offset="0.851562"/><stop stop-opacity="1" stop-color="rgb(100%, 82.348633%, 49.798584%)" offset="0.859375"/><stop stop-opacity="1" stop-color="rgb(100%, 82.348633%, 49.798584%)" offset="0.875"/><stop stop-opacity="1" stop-color="rgb(100%, 82.348633%, 49.798584%)" offset="1"/></linearGradient><clipPath id="de24131b00"><rect x="0" width="768" y="0" height="768"/></clipPath></defs><rect x="-76.8" width="921.6" fill="#ffffff" y="-76.799999" height="921.599993" fill-opacity="1"/><rect x="-76.8" width="921.6" fill="#ffffff" y="-76.799999" height="921.599993" fill-opacity="1"/><g transform="matrix(1, 0, 0, 1, 0, -0.000000000000057351)"><g clip-path="url(#de24131b00)"><g clip-path="url(#2e3d2c437a)"><rect x="-168.96" fill="url(#36bfa271b4)" width="1105.92" height="1105.919991" y="-168.959999"/></g></g></g><g fill="#ffffff" fill-opacity="1"><g transform="translate(114.404294, 599.999994)"><g><path d="M 221.5625 -223.359375 L 220.359375 -225.15625 C 220.359375 -229.957031 219.457031 -235.160156 217.65625 -240.765625 C 215.851562 -246.367188 213.75 -251.972656 211.34375 -257.578125 C 208.945312 -263.179688 206.242188 -268.6875 203.234375 -274.09375 C 200.234375 -279.5 197.535156 -284.601562 195.140625 -289.40625 L 190.9375 -291.8125 C 196.132812 -279.394531 201.535156 -268.179688 207.140625 -258.171875 C 212.742188 -248.171875 215.546875 -237.566406 215.546875 -226.359375 L 218.546875 -222.75 L 213.15625 -225.15625 L 213.15625 -228.765625 C 205.945312 -242.773438 199.039062 -258.082031 192.4375 -274.6875 C 185.832031 -291.300781 179.128906 -306.613281 172.328125 -320.625 C 168.316406 -293.800781 163.304688 -266.976562 157.296875 -240.15625 C 151.296875 -213.34375 143.695312 -187.328125 134.5 -162.109375 C 126.488281 -140.492188 116.878906 -119.78125 105.671875 -99.96875 C 94.460938 -80.15625 85.054688 -59.238281 77.453125 -37.21875 L 72.65625 -40.828125 L 66.046875 -39.625 C 62.441406 -40.425781 60.640625 -42.828125 60.640625 -46.828125 C 60.640625 -50.035156 61.238281 -53.941406 62.4375 -58.546875 C 63.644531 -63.148438 65.148438 -67.851562 66.953125 -72.65625 C 68.753906 -77.457031 70.65625 -82.160156 72.65625 -86.765625 C 74.65625 -91.367188 76.253906 -95.070312 77.453125 -97.875 L 72.046875 -99.671875 C 70.847656 -97.265625 67.945312 -91.859375 63.34375 -83.453125 C 58.738281 -75.046875 53.734375 -66.441406 48.328125 -57.640625 C 42.929688 -48.835938 37.628906 -40.832031 32.421875 -33.625 C 27.222656 -26.414062 23.222656 -22.8125 20.421875 -22.8125 C 18.410156 -24.019531 17.003906 -25.921875 16.203125 -28.515625 C 15.410156 -31.117188 15.015625 -33.421875 15.015625 -35.421875 C 15.015625 -47.035156 17.710938 -62.046875 23.109375 -80.453125 C 28.515625 -98.867188 34.820312 -117.984375 42.03125 -137.796875 C 49.238281 -157.609375 56.539062 -176.921875 63.9375 -195.734375 C 71.34375 -214.546875 77.050781 -230.359375 81.0625 -243.171875 C 84.65625 -254.378906 87.953125 -266.488281 90.953125 -279.5 C 93.960938 -292.507812 96.566406 -305.71875 98.765625 -319.125 C 100.972656 -332.53125 102.875 -345.835938 104.46875 -359.046875 C 106.070312 -372.253906 107.472656 -384.863281 108.671875 -396.875 C 115.484375 -402.082031 124.789062 -406.484375 136.59375 -410.078125 C 148.40625 -413.679688 159.3125 -417.488281 169.3125 -421.5 C 190.925781 -403.882812 209.539062 -383.664062 225.15625 -360.84375 C 240.769531 -338.03125 254.378906 -312.21875 265.984375 -283.40625 C 273.191406 -294.207031 279.894531 -306.210938 286.09375 -319.421875 C 292.300781 -332.628906 298.003906 -346.335938 303.203125 -360.546875 C 308.410156 -374.765625 313.414062 -388.875 318.21875 -402.875 C 323.019531 -416.882812 327.828125 -429.894531 332.640625 -441.90625 C 342.640625 -445.113281 353.144531 -447.515625 364.15625 -449.109375 C 375.164062 -450.710938 386.070312 -452.515625 396.875 -454.515625 C 407.6875 -432.097656 417.894531 -410.679688 427.5 -390.265625 C 437.101562 -369.859375 446.007812 -349.347656 454.21875 -328.734375 C 462.425781 -308.117188 469.832031 -287.003906 476.4375 -265.390625 C 483.039062 -243.773438 488.941406 -220.554688 494.140625 -195.734375 C 496.546875 -182.929688 499.550781 -170.023438 503.15625 -157.015625 C 506.757812 -144.003906 510.0625 -130.894531 513.0625 -117.6875 C 516.0625 -104.476562 518.660156 -91.265625 520.859375 -78.046875 C 523.066406 -64.835938 524.171875 -51.628906 524.171875 -38.421875 C 524.171875 -37.222656 523.671875 -35.625 522.671875 -33.625 C 521.671875 -31.625 519.566406 -30.421875 516.359375 -30.015625 C 509.953125 -67.640625 502.945312 -104.867188 495.34375 -141.703125 C 487.738281 -177.722656 478.332031 -213.546875 467.125 -249.171875 C 477.132812 -213.546875 485.742188 -178.125 492.953125 -142.90625 C 500.554688 -106.476562 507.160156 -69.453125 512.765625 -31.828125 L 504.359375 -27.015625 C 505.160156 -22.210938 506.160156 -17.207031 507.359375 -12 C 508.554688 -6.800781 509.15625 -1.800781 509.15625 3 C 509.15625 4.195312 509.054688 6.695312 508.859375 10.5 C 508.660156 14.3125 508.257812 18.21875 507.65625 22.21875 C 507.050781 26.21875 506.046875 29.71875 504.640625 32.71875 C 503.242188 35.71875 501.347656 37.21875 498.953125 37.21875 C 496.546875 37.21875 494.039062 35.71875 491.4375 32.71875 C 488.84375 29.71875 486.441406 26.113281 484.234375 21.90625 C 482.035156 17.707031 480.035156 13.707031 478.234375 9.90625 C 476.429688 6.101562 475.128906 3.203125 474.328125 1.203125 C 471.929688 -25.210938 467.828125 -54.734375 462.015625 -87.359375 C 456.210938 -119.984375 449.304688 -153.003906 441.296875 -186.421875 C 433.296875 -219.847656 424.191406 -252.269531 413.984375 -283.6875 C 403.785156 -315.113281 393.082031 -342.835938 381.875 -366.859375 L 381.265625 -363.859375 C 394.078125 -336.640625 405.082031 -308.71875 414.28125 -280.09375 C 423.488281 -251.476562 431.492188 -222.457031 438.296875 -193.03125 C 445.109375 -163.613281 450.914062 -133.992188 455.71875 -104.171875 C 460.519531 -74.347656 464.722656 -44.828125 468.328125 -15.609375 C 459.921875 -34.023438 453.210938 -52.738281 448.203125 -71.75 C 443.203125 -90.757812 438.800781 -109.769531 435 -128.78125 C 431.195312 -147.800781 427.394531 -166.914062 423.59375 -186.125 C 419.789062 -205.34375 415.085938 -224.757812 409.484375 -244.375 L 413.6875 -256.375 C 408.082031 -272.789062 402.378906 -289.003906 396.578125 -305.015625 C 390.773438 -321.023438 384.070312 -336.632812 376.46875 -351.84375 L 374.0625 -345.84375 C 369.65625 -333.832031 364.050781 -319.820312 357.25 -303.8125 C 350.445312 -287.800781 342.441406 -272.191406 333.234375 -256.984375 C 324.023438 -241.773438 313.71875 -228.164062 302.3125 -216.15625 C 290.90625 -204.144531 278.394531 -196.140625 264.78125 -192.140625 C 256.375 -197.335938 247.867188 -202.238281 239.265625 -206.84375 C 230.660156 -211.445312 221.957031 -216.148438 213.15625 -220.953125 L 213.15625 -224.5625 L 237.171875 -211.34375 C 245.171875 -206.945312 253.175781 -202.34375 261.1875 -197.53125 L 265.984375 -198.734375 C 283.203125 -208.742188 297.113281 -218.75 307.71875 -228.75 C 318.320312 -238.757812 327.425781 -249.769531 335.03125 -261.78125 C 342.632812 -273.789062 349.335938 -287.300781 355.140625 -302.3125 C 360.953125 -317.320312 367.660156 -334.4375 375.265625 -353.65625 L 372.859375 -359.046875 L 370.453125 -353.65625 L 360.25 -330.234375 C 356.25 -320.628906 351.347656 -310.320312 345.546875 -299.3125 C 339.742188 -288.300781 333.335938 -277.09375 326.328125 -265.6875 C 319.328125 -254.28125 312.222656 -243.875 305.015625 -234.46875 C 297.804688 -225.0625 290.398438 -217.453125 282.796875 -211.640625 C 275.191406 -205.835938 267.988281 -202.9375 261.1875 -202.9375 Z M 428.09375 -368.65625 C 427.300781 -371.0625 425.898438 -374.363281 423.890625 -378.5625 C 421.890625 -382.769531 419.789062 -387.070312 417.59375 -391.46875 C 415.394531 -395.875 413.289062 -400.175781 411.28125 -404.375 C 409.28125 -408.582031 407.679688 -411.6875 406.484375 -413.6875 L 413.09375 -395.078125 L 426.296875 -367.453125 Z M 365.0625 -366.25 L 344.640625 -312.21875 C 348.640625 -320.625 352.34375 -329.03125 355.75 -337.4375 C 359.15625 -345.84375 362.457031 -354.25 365.65625 -362.65625 Z M 349.453125 -421.5 L 357.25 -401.6875 L 360.25 -402.28125 L 353.046875 -421.5 Z M 114.6875 -389.078125 L 113.484375 -371.0625 C 113.484375 -367.0625 113.082031 -361.65625 112.28125 -354.84375 L 118.890625 -390.28125 Z M 320.03125 -376.46875 L 335.640625 -413.6875 L 333.234375 -413.6875 Z M 404.6875 -417.296875 L 390.875 -440.109375 L 392.078125 -433.5 Z M 378.859375 -373.46875 L 377.671875 -371.0625 L 380.0625 -366.25 L 380.671875 -369.265625 Z M 378.859375 -373.46875 "/></g></g></g></svg>