<svg xmlns="http://www.w3.org/2000/svg" xmlns:xlink="http://www.w3.org/1999/xlink" width="1200" zoomAndPan="magnify" viewBox="0 0 900 225" height="300" preserveAspectRatio="xMidYMid meet" version="1.0"><defs><g/></defs><g fill="#ffffff" fill-opacity="1"><g transform="translate(42.855467, 177.358063)"><g><path d="M 25.984375 0 L 9.78125 0 L 9.78125 -145.5625 L 27.765625 -145.5625 L 61.578125 -59.609375 L 95.375 -145.5625 L 113.359375 -145.5625 L 113.359375 0 L 97.15625 0 L 97.15625 -107.65625 L 67.96875 -32.390625 L 55.171875 -32.390625 L 25.984375 -107.65625 Z M 25.984375 0 "/></g></g></g><g fill="#ffffff" fill-opacity="1"><g transform="translate(170.978749, 177.358063)"><g><path d="M 56.765625 -91.109375 L 56.765625 -96.984375 L 72.953125 -96.984375 L 72.953125 0 L 56.765625 0 L 56.765625 -7.65625 L 46.09375 1.0625 C 44.3125 1.414062 42.472656 1.59375 40.578125 1.59375 C 34.640625 1.59375 29.207031 0.140625 24.28125 -2.765625 C 19.363281 -5.671875 15.453125 -9.582031 12.546875 -14.5 C 9.640625 -19.425781 8.1875 -24.851562 8.1875 -30.78125 L 8.1875 -66.375 C 8.1875 -72.300781 9.640625 -77.726562 12.546875 -82.65625 C 15.453125 -87.582031 19.363281 -91.5 24.28125 -94.40625 C 29.207031 -97.3125 34.640625 -98.765625 40.578125 -98.765625 C 42.472656 -98.765625 44.3125 -98.585938 46.09375 -98.234375 Z M 56.765625 -30.78125 L 56.765625 -66.375 C 56.765625 -70.882812 55.191406 -74.707031 52.046875 -77.84375 C 48.898438 -80.988281 45.078125 -82.5625 40.578125 -82.5625 C 36.179688 -82.5625 32.378906 -80.988281 29.171875 -77.84375 C 25.972656 -74.707031 24.375 -70.882812 24.375 -66.375 L 24.375 -30.78125 C 24.375 -26.394531 25.972656 -22.597656 29.171875 -19.390625 C 32.378906 -16.191406 36.179688 -14.59375 40.578125 -14.59375 C 45.078125 -14.59375 48.898438 -16.191406 52.046875 -19.390625 C 55.191406 -22.597656 56.765625 -26.394531 56.765625 -30.78125 Z M 56.765625 -30.78125 "/></g></g></g><g fill="#ffffff" fill-opacity="1"><g transform="translate(256.394288, 177.358063)"><g><path d="M 21.359375 -112.640625 C 18.503906 -112.640625 16.066406 -113.644531 14.046875 -115.65625 C 12.035156 -117.675781 11.03125 -120.113281 11.03125 -122.96875 C 11.03125 -125.695312 12.035156 -128.066406 14.046875 -130.078125 C 16.066406 -132.097656 18.503906 -133.109375 21.359375 -133.109375 C 24.085938 -133.109375 26.457031 -132.097656 28.46875 -130.078125 C 30.488281 -128.066406 31.5 -125.695312 31.5 -122.96875 C 31.5 -120.113281 30.488281 -117.675781 28.46875 -115.65625 C 26.457031 -113.644531 24.085938 -112.640625 21.359375 -112.640625 Z M 29.359375 0.359375 L 12.453125 0.359375 L 12.453125 -96.625 L 29.359375 -96.625 Z M 29.359375 0.359375 "/></g></g></g><g fill="#ffffff" fill-opacity="1"><g transform="translate(299.102035, 177.358063)"><g><path d="M 24.203125 0 L 8 0 L 8 -96.984375 L 24.203125 -96.984375 L 24.203125 -87.546875 L 34.875 -98.234375 C 36.65625 -98.585938 38.492188 -98.765625 40.390625 -98.765625 C 46.328125 -98.765625 51.753906 -97.3125 56.671875 -94.40625 C 61.597656 -91.5 65.515625 -87.582031 68.421875 -82.65625 C 71.328125 -77.726562 72.78125 -72.300781 72.78125 -66.375 L 72.78125 0 L 56.59375 0 L 56.59375 -66.375 C 56.59375 -70.882812 55.019531 -74.707031 51.875 -77.84375 C 48.726562 -80.988281 44.898438 -82.5625 40.390625 -82.5625 C 36.003906 -82.5625 32.207031 -80.988281 29 -77.84375 C 25.800781 -74.707031 24.203125 -70.882812 24.203125 -66.375 Z M 24.203125 0 "/></g></g></g><g fill="#ffffff" fill-opacity="1"><g transform="translate(384.517574, 177.358063)"><g><path d="M 45.90625 -106.953125 L 45.90625 -91.640625 L 78.65625 -91.640625 L 78.65625 -75.625 L 45.90625 -75.625 L 45.90625 0.890625 L 29.71875 0.890625 L 29.71875 -75.625 L 6.9375 -75.625 L 6.9375 -91.640625 L 29.71875 -91.640625 L 29.71875 -106.953125 C 29.71875 -112.878906 31.171875 -118.300781 34.078125 -123.21875 C 36.984375 -128.144531 40.867188 -132.0625 45.734375 -134.96875 C 50.597656 -137.875 55.992188 -139.328125 61.921875 -139.328125 L 69.75 -139.328125 L 69.75 -123.140625 L 61.921875 -123.140625 C 57.535156 -123.140625 53.769531 -121.566406 50.625 -118.421875 C 47.476562 -115.273438 45.90625 -111.453125 45.90625 -106.953125 Z M 45.90625 -106.953125 "/></g></g></g><g fill="#ffffff" fill-opacity="1"><g transform="translate(469.933113, 177.358063)"><g><path d="M 24.203125 -44.84375 L 24.203125 -29.71875 C 24.203125 -26.988281 24.941406 -24.316406 26.421875 -21.703125 C 27.910156 -19.097656 29.867188 -16.9375 32.296875 -15.21875 C 34.734375 -13.5 37.429688 -12.640625 40.390625 -12.640625 C 43.359375 -12.640625 46.054688 -13.5 48.484375 -15.21875 C 50.921875 -16.9375 52.878906 -19.097656 54.359375 -21.703125 C 55.847656 -24.316406 56.59375 -26.988281 56.59375 -29.71875 L 72.78125 -29.71875 C 72.78125 -23.78125 71.328125 -18.347656 68.421875 -13.421875 C 65.515625 -8.503906 61.597656 -4.59375 56.671875 -1.6875 C 51.753906 1.21875 46.328125 2.671875 40.390625 2.671875 C 34.460938 2.671875 29.035156 1.21875 24.109375 -1.6875 C 19.191406 -4.59375 15.273438 -8.503906 12.359375 -13.421875 C 9.453125 -18.347656 8 -23.78125 8 -29.71875 L 8 -66.375 C 8 -71.945312 9.453125 -77.195312 12.359375 -82.125 C 15.273438 -87.050781 19.191406 -91.054688 24.109375 -94.140625 C 29.035156 -97.222656 34.460938 -98.765625 40.390625 -98.765625 C 46.328125 -98.765625 51.753906 -97.3125 56.671875 -94.40625 C 61.597656 -91.5 65.515625 -87.582031 68.421875 -82.65625 C 71.328125 -77.726562 72.78125 -72.300781 72.78125 -66.375 L 72.78125 -44.84375 Z M 24.203125 -60.140625 L 56.59375 -60.140625 L 56.59375 -66.375 C 56.59375 -69.101562 55.847656 -71.769531 54.359375 -74.375 C 52.878906 -76.988281 50.921875 -79.15625 48.484375 -80.875 C 46.054688 -82.59375 43.359375 -83.453125 40.390625 -83.453125 C 37.429688 -83.453125 34.734375 -82.59375 32.296875 -80.875 C 29.867188 -79.15625 27.910156 -76.988281 26.421875 -74.375 C 24.941406 -71.769531 24.203125 -69.101562 24.203125 -66.375 Z M 24.203125 -60.140625 "/></g></g></g><g fill="#ffffff" fill-opacity="1"><g transform="translate(555.348606, 177.358063)"><g><path d="M 24.203125 -44.84375 L 24.203125 -29.71875 C 24.203125 -26.988281 24.941406 -24.316406 26.421875 -21.703125 C 27.910156 -19.097656 29.867188 -16.9375 32.296875 -15.21875 C 34.734375 -13.5 37.429688 -12.640625 40.390625 -12.640625 C 43.359375 -12.640625 46.054688 -13.5 48.484375 -15.21875 C 50.921875 -16.9375 52.878906 -19.097656 54.359375 -21.703125 C 55.847656 -24.316406 56.59375 -26.988281 56.59375 -29.71875 L 72.78125 -29.71875 C 72.78125 -23.78125 71.328125 -18.347656 68.421875 -13.421875 C 65.515625 -8.503906 61.597656 -4.59375 56.671875 -1.6875 C 51.753906 1.21875 46.328125 2.671875 40.390625 2.671875 C 34.460938 2.671875 29.035156 1.21875 24.109375 -1.6875 C 19.191406 -4.59375 15.273438 -8.503906 12.359375 -13.421875 C 9.453125 -18.347656 8 -23.78125 8 -29.71875 L 8 -66.375 C 8 -71.945312 9.453125 -77.195312 12.359375 -82.125 C 15.273438 -87.050781 19.191406 -91.054688 24.109375 -94.140625 C 29.035156 -97.222656 34.460938 -98.765625 40.390625 -98.765625 C 46.328125 -98.765625 51.753906 -97.3125 56.671875 -94.40625 C 61.597656 -91.5 65.515625 -87.582031 68.421875 -82.65625 C 71.328125 -77.726562 72.78125 -72.300781 72.78125 -66.375 L 72.78125 -44.84375 Z M 24.203125 -60.140625 L 56.59375 -60.140625 L 56.59375 -66.375 C 56.59375 -69.101562 55.847656 -71.769531 54.359375 -74.375 C 52.878906 -76.988281 50.921875 -79.15625 48.484375 -80.875 C 46.054688 -82.59375 43.359375 -83.453125 40.390625 -83.453125 C 37.429688 -83.453125 34.734375 -82.59375 32.296875 -80.875 C 29.867188 -79.15625 27.910156 -76.988281 26.421875 -74.375 C 24.941406 -71.769531 24.203125 -69.101562 24.203125 -66.375 Z M 24.203125 -60.140625 "/></g></g></g><g fill="#ffffff" fill-opacity="1"><g transform="translate(640.764145, 177.358063)"><g><path d="M 56.59375 -91.28125 L 56.59375 -144.671875 L 72.78125 -144.671875 L 72.78125 0 L 56.59375 0 L 56.59375 -7.46875 L 46.09375 1.0625 C 44.3125 1.414062 42.472656 1.59375 40.578125 1.59375 C 34.640625 1.59375 29.207031 0.140625 24.28125 -2.765625 C 19.363281 -5.671875 15.453125 -9.582031 12.546875 -14.5 C 9.640625 -19.425781 8.1875 -24.851562 8.1875 -30.78125 L 8.1875 -66.375 C 8.1875 -72.300781 9.640625 -77.726562 12.546875 -82.65625 C 15.453125 -87.582031 19.363281 -91.5 24.28125 -94.40625 C 29.207031 -97.3125 34.640625 -98.765625 40.578125 -98.765625 C 42.472656 -98.765625 44.3125 -98.585938 46.09375 -98.234375 Z M 40.578125 -14.59375 C 44.609375 -14.59375 48.132812 -15.925781 51.15625 -18.59375 C 54.1875 -21.257812 56 -24.550781 56.59375 -28.46875 L 56.59375 -68.6875 C 56 -72.601562 54.1875 -75.894531 51.15625 -78.5625 C 48.132812 -81.226562 44.609375 -82.5625 40.578125 -82.5625 C 36.179688 -82.5625 32.378906 -80.988281 29.171875 -77.84375 C 25.972656 -74.707031 24.375 -70.882812 24.375 -66.375 L 24.375 -30.78125 C 24.375 -26.394531 25.972656 -22.597656 29.171875 -19.390625 C 32.378906 -16.191406 36.179688 -14.59375 40.578125 -14.59375 Z M 40.578125 -14.59375 "/></g></g></g></svg>