<svg xmlns="http://www.w3.org/2000/svg" xmlns:xlink="http://www.w3.org/1999/xlink" width="1024" zoomAndPan="magnify" viewBox="0 0 768 767.999994" height="1024" preserveAspectRatio="xMidYMid meet" version="1.0"><defs><g/><clipPath id="fb1a612434"><path d="M 384 0 C 171.921875 0 0 171.921875 0 384 C 0 596.078125 171.921875 768 384 768 C 596.078125 768 768 596.078125 768 384 C 768 171.921875 596.078125 0 384 0 Z M 384 0 " clip-rule="nonzero"/></clipPath><clipPath id="adc3f2c24a"><path d="M 0 0 L 768 0 L 768 768 L 0 768 Z M 0 0 " clip-rule="nonzero"/></clipPath><clipPath id="e998fc40bb"><path d="M 384 0 C 171.921875 0 0 171.921875 0 384 C 0 596.078125 171.921875 768 384 768 C 596.078125 768 768 596.078125 768 384 C 768 171.921875 596.078125 0 384 0 Z M 384 0 " clip-rule="nonzero"/></clipPath><linearGradient x1="0" gradientTransform="matrix(3, 0, 0, 3, 0.000003, 0.00002)" y1="128" x2="256" gradientUnits="userSpaceOnUse" y2="128" id="42ad1bd626"><stop stop-opacity="1" stop-color="rgb(100%, 19.219971%, 19.219971%)" offset="0"/><stop stop-opacity="1" stop-color="rgb(100%, 19.366455%, 19.262695%)" offset="0.0078125"/><stop stop-opacity="1" stop-color="rgb(100%, 19.659424%, 19.348145%)" offset="0.015625"/><stop stop-opacity="1" stop-color="rgb(100%, 19.953918%, 19.433594%)" offset="0.0234375"/><stop stop-opacity="1" stop-color="rgb(100%, 20.248413%, 19.519043%)" offset="0.03125"/><stop stop-opacity="1" stop-color="rgb(100%, 20.541382%, 19.604492%)" offset="0.0390625"/><stop stop-opacity="1" stop-color="rgb(100%, 20.835876%, 19.691467%)" offset="0.046875"/><stop stop-opacity="1" stop-color="rgb(100%, 21.130371%, 19.776917%)" offset="0.0546875"/><stop stop-opacity="1" stop-color="rgb(100%, 21.424866%, 19.862366%)" offset="0.0625"/><stop stop-opacity="1" stop-color="rgb(100%, 21.717834%, 19.947815%)" offset="0.0703125"/><stop stop-opacity="1" stop-color="rgb(100%, 22.012329%, 20.033264%)" offset="0.078125"/><stop stop-opacity="1" stop-color="rgb(100%, 22.306824%, 20.120239%)" offset="0.0859375"/><stop stop-opacity="1" stop-color="rgb(100%, 22.599792%, 20.205688%)" offset="0.09375"/><stop stop-opacity="1" stop-color="rgb(100%, 22.894287%, 20.291138%)" offset="0.101562"/><stop stop-opacity="1" stop-color="rgb(100%, 23.188782%, 20.376587%)" offset="0.109375"/><stop stop-opacity="1" stop-color="rgb(100%, 23.483276%, 20.463562%)" offset="0.117188"/><stop stop-opacity="1" stop-color="rgb(100%, 23.776245%, 20.549011%)" offset="0.125"/><stop stop-opacity="1" stop-color="rgb(100%, 24.07074%, 20.63446%)" offset="0.132812"/><stop stop-opacity="1" stop-color="rgb(100%, 24.365234%, 20.71991%)" offset="0.140625"/><stop stop-opacity="1" stop-color="rgb(100%, 24.658203%, 20.805359%)" offset="0.148438"/><stop stop-opacity="1" stop-color="rgb(100%, 24.952698%, 20.892334%)" offset="0.15625"/><stop stop-opacity="1" stop-color="rgb(100%, 25.247192%, 20.977783%)" offset="0.164062"/><stop stop-opacity="1" stop-color="rgb(100%, 25.541687%, 21.063232%)" offset="0.171875"/><stop stop-opacity="1" stop-color="rgb(100%, 25.834656%, 21.148682%)" offset="0.179688"/><stop stop-opacity="1" stop-color="rgb(100%, 26.12915%, 21.235657%)" offset="0.1875"/><stop stop-opacity="1" stop-color="rgb(100%, 26.423645%, 21.321106%)" offset="0.195312"/><stop stop-opacity="1" stop-color="rgb(100%, 26.716614%, 21.406555%)" offset="0.203125"/><stop stop-opacity="1" stop-color="rgb(100%, 27.011108%, 21.492004%)" offset="0.210938"/><stop stop-opacity="1" stop-color="rgb(100%, 27.305603%, 21.577454%)" offset="0.21875"/><stop stop-opacity="1" stop-color="rgb(100%, 27.600098%, 21.664429%)" offset="0.226562"/><stop stop-opacity="1" stop-color="rgb(100%, 27.893066%, 21.749878%)" offset="0.234375"/><stop stop-opacity="1" stop-color="rgb(100%, 28.187561%, 21.835327%)" offset="0.242188"/><stop stop-opacity="1" stop-color="rgb(100%, 28.482056%, 21.920776%)" offset="0.25"/><stop stop-opacity="1" stop-color="rgb(100%, 28.775024%, 22.006226%)" offset="0.257812"/><stop stop-opacity="1" stop-color="rgb(100%, 29.069519%, 22.093201%)" offset="0.265625"/><stop stop-opacity="1" stop-color="rgb(100%, 29.364014%, 22.17865%)" offset="0.273438"/><stop stop-opacity="1" stop-color="rgb(100%, 29.658508%, 22.264099%)" offset="0.28125"/><stop stop-opacity="1" stop-color="rgb(100%, 29.951477%, 22.349548%)" offset="0.289062"/><stop stop-opacity="1" stop-color="rgb(100%, 30.245972%, 22.436523%)" offset="0.296875"/><stop stop-opacity="1" stop-color="rgb(100%, 30.540466%, 22.521973%)" offset="0.304688"/><stop stop-opacity="1" stop-color="rgb(100%, 30.833435%, 22.607422%)" offset="0.3125"/><stop stop-opacity="1" stop-color="rgb(100%, 31.12793%, 22.692871%)" offset="0.320312"/><stop stop-opacity="1" stop-color="rgb(100%, 31.422424%, 22.77832%)" offset="0.328125"/><stop stop-opacity="1" stop-color="rgb(100%, 31.716919%, 22.865295%)" offset="0.335938"/><stop stop-opacity="1" stop-color="rgb(100%, 32.009888%, 22.950745%)" offset="0.34375"/><stop stop-opacity="1" stop-color="rgb(100%, 32.304382%, 23.036194%)" offset="0.351562"/><stop stop-opacity="1" stop-color="rgb(100%, 32.598877%, 23.121643%)" offset="0.359375"/><stop stop-opacity="1" stop-color="rgb(100%, 32.891846%, 23.208618%)" offset="0.367188"/><stop stop-opacity="1" stop-color="rgb(100%, 33.18634%, 23.294067%)" offset="0.375"/><stop stop-opacity="1" stop-color="rgb(100%, 33.480835%, 23.379517%)" offset="0.382812"/><stop stop-opacity="1" stop-color="rgb(100%, 33.77533%, 23.464966%)" offset="0.390625"/><stop stop-opacity="1" stop-color="rgb(100%, 34.068298%, 23.550415%)" offset="0.398438"/><stop stop-opacity="1" stop-color="rgb(100%, 34.362793%, 23.63739%)" offset="0.40625"/><stop stop-opacity="1" stop-color="rgb(100%, 34.657288%, 23.722839%)" offset="0.414062"/><stop stop-opacity="1" stop-color="rgb(100%, 34.951782%, 23.808289%)" offset="0.421875"/><stop stop-opacity="1" stop-color="rgb(100%, 35.244751%, 23.893738%)" offset="0.429688"/><stop stop-opacity="1" stop-color="rgb(100%, 35.539246%, 23.979187%)" offset="0.4375"/><stop stop-opacity="1" stop-color="rgb(100%, 35.83374%, 24.066162%)" offset="0.445312"/><stop stop-opacity="1" stop-color="rgb(100%, 36.126709%, 24.151611%)" offset="0.453125"/><stop stop-opacity="1" stop-color="rgb(100%, 36.421204%, 24.237061%)" offset="0.460938"/><stop stop-opacity="1" stop-color="rgb(100%, 36.715698%, 24.32251%)" offset="0.46875"/><stop stop-opacity="1" stop-color="rgb(100%, 37.010193%, 24.409485%)" offset="0.476562"/><stop stop-opacity="1" stop-color="rgb(100%, 37.303162%, 24.494934%)" offset="0.484375"/><stop stop-opacity="1" stop-color="rgb(100%, 37.597656%, 24.580383%)" offset="0.492188"/><stop stop-opacity="1" stop-color="rgb(100%, 37.892151%, 24.665833%)" offset="0.5"/><stop stop-opacity="1" stop-color="rgb(100%, 38.18512%, 24.751282%)" offset="0.507812"/><stop stop-opacity="1" stop-color="rgb(100%, 38.479614%, 24.838257%)" offset="0.515625"/><stop stop-opacity="1" stop-color="rgb(100%, 38.774109%, 24.923706%)" offset="0.523438"/><stop stop-opacity="1" stop-color="rgb(100%, 39.068604%, 25.009155%)" offset="0.53125"/><stop stop-opacity="1" stop-color="rgb(100%, 39.361572%, 25.094604%)" offset="0.539062"/><stop stop-opacity="1" stop-color="rgb(100%, 39.656067%, 25.18158%)" offset="0.546875"/><stop stop-opacity="1" stop-color="rgb(100%, 39.950562%, 25.267029%)" offset="0.554688"/><stop stop-opacity="1" stop-color="rgb(100%, 40.24353%, 25.352478%)" offset="0.5625"/><stop stop-opacity="1" stop-color="rgb(100%, 40.538025%, 25.437927%)" offset="0.570312"/><stop stop-opacity="1" stop-color="rgb(100%, 40.83252%, 25.523376%)" offset="0.578125"/><stop stop-opacity="1" stop-color="rgb(100%, 41.127014%, 25.610352%)" offset="0.585938"/><stop stop-opacity="1" stop-color="rgb(100%, 41.419983%, 25.695801%)" offset="0.59375"/><stop stop-opacity="1" stop-color="rgb(100%, 41.714478%, 25.78125%)" offset="0.601562"/><stop stop-opacity="1" stop-color="rgb(100%, 42.008972%, 25.866699%)" offset="0.609375"/><stop stop-opacity="1" stop-color="rgb(100%, 42.301941%, 25.952148%)" offset="0.617188"/><stop stop-opacity="1" stop-color="rgb(100%, 42.596436%, 26.039124%)" offset="0.625"/><stop stop-opacity="1" stop-color="rgb(100%, 42.89093%, 26.124573%)" offset="0.632812"/><stop stop-opacity="1" stop-color="rgb(100%, 43.185425%, 26.210022%)" offset="0.640625"/><stop stop-opacity="1" stop-color="rgb(100%, 43.478394%, 26.295471%)" offset="0.648438"/><stop stop-opacity="1" stop-color="rgb(100%, 43.772888%, 26.382446%)" offset="0.65625"/><stop stop-opacity="1" stop-color="rgb(100%, 44.067383%, 26.467896%)" offset="0.664062"/><stop stop-opacity="1" stop-color="rgb(100%, 44.360352%, 26.553345%)" offset="0.671875"/><stop stop-opacity="1" stop-color="rgb(100%, 44.654846%, 26.638794%)" offset="0.679688"/><stop stop-opacity="1" stop-color="rgb(100%, 44.949341%, 26.724243%)" offset="0.6875"/><stop stop-opacity="1" stop-color="rgb(100%, 45.243835%, 26.811218%)" offset="0.695312"/><stop stop-opacity="1" stop-color="rgb(100%, 45.536804%, 26.896667%)" offset="0.703125"/><stop stop-opacity="1" stop-color="rgb(100%, 45.831299%, 26.982117%)" offset="0.710938"/><stop stop-opacity="1" stop-color="rgb(100%, 46.125793%, 27.067566%)" offset="0.71875"/><stop stop-opacity="1" stop-color="rgb(100%, 46.418762%, 27.154541%)" offset="0.726562"/><stop stop-opacity="1" stop-color="rgb(100%, 46.713257%, 27.23999%)" offset="0.734375"/><stop stop-opacity="1" stop-color="rgb(100%, 47.007751%, 27.325439%)" offset="0.742188"/><stop stop-opacity="1" stop-color="rgb(100%, 47.302246%, 27.410889%)" offset="0.75"/><stop stop-opacity="1" stop-color="rgb(100%, 47.595215%, 27.496338%)" offset="0.757812"/><stop stop-opacity="1" stop-color="rgb(100%, 47.889709%, 27.583313%)" offset="0.765625"/><stop stop-opacity="1" stop-color="rgb(100%, 48.184204%, 27.668762%)" offset="0.773438"/><stop stop-opacity="1" stop-color="rgb(100%, 48.477173%, 27.754211%)" offset="0.78125"/><stop stop-opacity="1" stop-color="rgb(100%, 48.771667%, 27.839661%)" offset="0.789062"/><stop stop-opacity="1" stop-color="rgb(100%, 49.066162%, 27.92511%)" offset="0.796875"/><stop stop-opacity="1" stop-color="rgb(100%, 49.360657%, 28.012085%)" offset="0.804688"/><stop stop-opacity="1" stop-color="rgb(100%, 49.653625%, 28.097534%)" offset="0.8125"/><stop stop-opacity="1" stop-color="rgb(100%, 49.94812%, 28.182983%)" offset="0.820312"/><stop stop-opacity="1" stop-color="rgb(100%, 50.242615%, 28.268433%)" offset="0.828125"/><stop stop-opacity="1" stop-color="rgb(100%, 50.537109%, 28.355408%)" offset="0.835938"/><stop stop-opacity="1" stop-color="rgb(100%, 50.830078%, 28.440857%)" offset="0.84375"/><stop stop-opacity="1" stop-color="rgb(100%, 51.124573%, 28.526306%)" offset="0.851562"/><stop stop-opacity="1" stop-color="rgb(100%, 51.419067%, 28.611755%)" offset="0.859375"/><stop stop-opacity="1" stop-color="rgb(100%, 51.712036%, 28.697205%)" offset="0.867188"/><stop stop-opacity="1" stop-color="rgb(100%, 52.006531%, 28.78418%)" offset="0.875"/><stop stop-opacity="1" stop-color="rgb(100%, 52.301025%, 28.869629%)" offset="0.882812"/><stop stop-opacity="1" stop-color="rgb(100%, 52.59552%, 28.955078%)" offset="0.890625"/><stop stop-opacity="1" stop-color="rgb(100%, 52.888489%, 29.040527%)" offset="0.898438"/><stop stop-opacity="1" stop-color="rgb(100%, 53.182983%, 29.127502%)" offset="0.90625"/><stop stop-opacity="1" stop-color="rgb(100%, 53.477478%, 29.212952%)" offset="0.914062"/><stop stop-opacity="1" stop-color="rgb(100%, 53.770447%, 29.298401%)" offset="0.921875"/><stop stop-opacity="1" stop-color="rgb(100%, 54.064941%, 29.38385%)" offset="0.929688"/><stop stop-opacity="1" stop-color="rgb(100%, 54.359436%, 29.469299%)" offset="0.9375"/><stop stop-opacity="1" stop-color="rgb(100%, 54.653931%, 29.556274%)" offset="0.945312"/><stop stop-opacity="1" stop-color="rgb(100%, 54.946899%, 29.641724%)" offset="0.953125"/><stop stop-opacity="1" stop-color="rgb(100%, 55.241394%, 29.727173%)" offset="0.960938"/><stop stop-opacity="1" stop-color="rgb(100%, 55.535889%, 29.812622%)" offset="0.96875"/><stop stop-opacity="1" stop-color="rgb(100%, 55.828857%, 29.899597%)" offset="0.976562"/><stop stop-opacity="1" stop-color="rgb(100%, 56.123352%, 29.985046%)" offset="0.984375"/><stop stop-opacity="1" stop-color="rgb(100%, 56.417847%, 30.070496%)" offset="0.992188"/><stop stop-opacity="1" stop-color="rgb(100%, 56.712341%, 30.155945%)" offset="1"/></linearGradient><clipPath id="94a4ce077b"><rect x="0" width="768" y="0" height="768"/></clipPath></defs><g clip-path="url(#fb1a612434)"><g transform="matrix(1, 0, 0, 1, 0, -0.000000000000057351)"><g clip-path="url(#94a4ce077b)"><g clip-path="url(#adc3f2c24a)"><g clip-path="url(#e998fc40bb)"><rect x="-168.96" fill="url(#42ad1bd626)" width="1105.92" height="1105.919991" y="-168.959999"/></g></g></g></g></g><g fill="#ffffff" fill-opacity="1"><g transform="translate(114.404294, 599.999994)"><g><path d="M 221.5625 -223.359375 L 220.359375 -225.15625 C 220.359375 -229.957031 219.457031 -235.160156 217.65625 -240.765625 C 215.851562 -246.367188 213.75 -251.972656 211.34375 -257.578125 C 208.945312 -263.179688 206.242188 -268.6875 203.234375 -274.09375 C 200.234375 -279.5 197.535156 -284.601562 195.140625 -289.40625 L 190.9375 -291.8125 C 196.132812 -279.394531 201.535156 -268.179688 207.140625 -258.171875 C 212.742188 -248.171875 215.546875 -237.566406 215.546875 -226.359375 L 218.546875 -222.75 L 213.15625 -225.15625 L 213.15625 -228.765625 C 205.945312 -242.773438 199.039062 -258.082031 192.4375 -274.6875 C 185.832031 -291.300781 179.128906 -306.613281 172.328125 -320.625 C 168.316406 -293.800781 163.304688 -266.976562 157.296875 -240.15625 C 151.296875 -213.34375 143.695312 -187.328125 134.5 -162.109375 C 126.488281 -140.492188 116.878906 -119.78125 105.671875 -99.96875 C 94.460938 -80.15625 85.054688 -59.238281 77.453125 -37.21875 L 72.65625 -40.828125 L 66.046875 -39.625 C 62.441406 -40.425781 60.640625 -42.828125 60.640625 -46.828125 C 60.640625 -50.035156 61.238281 -53.941406 62.4375 -58.546875 C 63.644531 -63.148438 65.148438 -67.851562 66.953125 -72.65625 C 68.753906 -77.457031 70.65625 -82.160156 72.65625 -86.765625 C 74.65625 -91.367188 76.253906 -95.070312 77.453125 -97.875 L 72.046875 -99.671875 C 70.847656 -97.265625 67.945312 -91.859375 63.34375 -83.453125 C 58.738281 -75.046875 53.734375 -66.441406 48.328125 -57.640625 C 42.929688 -48.835938 37.628906 -40.832031 32.421875 -33.625 C 27.222656 -26.414062 23.222656 -22.8125 20.421875 -22.8125 C 18.410156 -24.019531 17.003906 -25.921875 16.203125 -28.515625 C 15.410156 -31.117188 15.015625 -33.421875 15.015625 -35.421875 C 15.015625 -47.035156 17.710938 -62.046875 23.109375 -80.453125 C 28.515625 -98.867188 34.820312 -117.984375 42.03125 -137.796875 C 49.238281 -157.609375 56.539062 -176.921875 63.9375 -195.734375 C 71.34375 -214.546875 77.050781 -230.359375 81.0625 -243.171875 C 84.65625 -254.378906 87.953125 -266.488281 90.953125 -279.5 C 93.960938 -292.507812 96.566406 -305.71875 98.765625 -319.125 C 100.972656 -332.53125 102.875 -345.835938 104.46875 -359.046875 C 106.070312 -372.253906 107.472656 -384.863281 108.671875 -396.875 C 115.484375 -402.082031 124.789062 -406.484375 136.59375 -410.078125 C 148.40625 -413.679688 159.3125 -417.488281 169.3125 -421.5 C 190.925781 -403.882812 209.539062 -383.664062 225.15625 -360.84375 C 240.769531 -338.03125 254.378906 -312.21875 265.984375 -283.40625 C 273.191406 -294.207031 279.894531 -306.210938 286.09375 -319.421875 C 292.300781 -332.628906 298.003906 -346.335938 303.203125 -360.546875 C 308.410156 -374.765625 313.414062 -388.875 318.21875 -402.875 C 323.019531 -416.882812 327.828125 -429.894531 332.640625 -441.90625 C 342.640625 -445.113281 353.144531 -447.515625 364.15625 -449.109375 C 375.164062 -450.710938 386.070312 -452.515625 396.875 -454.515625 C 407.6875 -432.097656 417.894531 -410.679688 427.5 -390.265625 C 437.101562 -369.859375 446.007812 -349.347656 454.21875 -328.734375 C 462.425781 -308.117188 469.832031 -287.003906 476.4375 -265.390625 C 483.039062 -243.773438 488.941406 -220.554688 494.140625 -195.734375 C 496.546875 -182.929688 499.550781 -170.023438 503.15625 -157.015625 C 506.757812 -144.003906 510.0625 -130.894531 513.0625 -117.6875 C 516.0625 -104.476562 518.660156 -91.265625 520.859375 -78.046875 C 523.066406 -64.835938 524.171875 -51.628906 524.171875 -38.421875 C 524.171875 -37.222656 523.671875 -35.625 522.671875 -33.625 C 521.671875 -31.625 519.566406 -30.421875 516.359375 -30.015625 C 509.953125 -67.640625 502.945312 -104.867188 495.34375 -141.703125 C 487.738281 -177.722656 478.332031 -213.546875 467.125 -249.171875 C 477.132812 -213.546875 485.742188 -178.125 492.953125 -142.90625 C 500.554688 -106.476562 507.160156 -69.453125 512.765625 -31.828125 L 504.359375 -27.015625 C 505.160156 -22.210938 506.160156 -17.207031 507.359375 -12 C 508.554688 -6.800781 509.15625 -1.800781 509.15625 3 C 509.15625 4.195312 509.054688 6.695312 508.859375 10.5 C 508.660156 14.3125 508.257812 18.21875 507.65625 22.21875 C 507.050781 26.21875 506.046875 29.71875 504.640625 32.71875 C 503.242188 35.71875 501.347656 37.21875 498.953125 37.21875 C 496.546875 37.21875 494.039062 35.71875 491.4375 32.71875 C 488.84375 29.71875 486.441406 26.113281 484.234375 21.90625 C 482.035156 17.707031 480.035156 13.707031 478.234375 9.90625 C 476.429688 6.101562 475.128906 3.203125 474.328125 1.203125 C 471.929688 -25.210938 467.828125 -54.734375 462.015625 -87.359375 C 456.210938 -119.984375 449.304688 -153.003906 441.296875 -186.421875 C 433.296875 -219.847656 424.191406 -252.269531 413.984375 -283.6875 C 403.785156 -315.113281 393.082031 -342.835938 381.875 -366.859375 L 381.265625 -363.859375 C 394.078125 -336.640625 405.082031 -308.71875 414.28125 -280.09375 C 423.488281 -251.476562 431.492188 -222.457031 438.296875 -193.03125 C 445.109375 -163.613281 450.914062 -133.992188 455.71875 -104.171875 C 460.519531 -74.347656 464.722656 -44.828125 468.328125 -15.609375 C 459.921875 -34.023438 453.210938 -52.738281 448.203125 -71.75 C 443.203125 -90.757812 438.800781 -109.769531 435 -128.78125 C 431.195312 -147.800781 427.394531 -166.914062 423.59375 -186.125 C 419.789062 -205.34375 415.085938 -224.757812 409.484375 -244.375 L 413.6875 -256.375 C 408.082031 -272.789062 402.378906 -289.003906 396.578125 -305.015625 C 390.773438 -321.023438 384.070312 -336.632812 376.46875 -351.84375 L 374.0625 -345.84375 C 369.65625 -333.832031 364.050781 -319.820312 357.25 -303.8125 C 350.445312 -287.800781 342.441406 -272.191406 333.234375 -256.984375 C 324.023438 -241.773438 313.71875 -228.164062 302.3125 -216.15625 C 290.90625 -204.144531 278.394531 -196.140625 264.78125 -192.140625 C 256.375 -197.335938 247.867188 -202.238281 239.265625 -206.84375 C 230.660156 -211.445312 221.957031 -216.148438 213.15625 -220.953125 L 213.15625 -224.5625 L 237.171875 -211.34375 C 245.171875 -206.945312 253.175781 -202.34375 261.1875 -197.53125 L 265.984375 -198.734375 C 283.203125 -208.742188 297.113281 -218.75 307.71875 -228.75 C 318.320312 -238.757812 327.425781 -249.769531 335.03125 -261.78125 C 342.632812 -273.789062 349.335938 -287.300781 355.140625 -302.3125 C 360.953125 -317.320312 367.660156 -334.4375 375.265625 -353.65625 L 372.859375 -359.046875 L 370.453125 -353.65625 L 360.25 -330.234375 C 356.25 -320.628906 351.347656 -310.320312 345.546875 -299.3125 C 339.742188 -288.300781 333.335938 -277.09375 326.328125 -265.6875 C 319.328125 -254.28125 312.222656 -243.875 305.015625 -234.46875 C 297.804688 -225.0625 290.398438 -217.453125 282.796875 -211.640625 C 275.191406 -205.835938 267.988281 -202.9375 261.1875 -202.9375 Z M 428.09375 -368.65625 C 427.300781 -371.0625 425.898438 -374.363281 423.890625 -378.5625 C 421.890625 -382.769531 419.789062 -387.070312 417.59375 -391.46875 C 415.394531 -395.875 413.289062 -400.175781 411.28125 -404.375 C 409.28125 -408.582031 407.679688 -411.6875 406.484375 -413.6875 L 413.09375 -395.078125 L 426.296875 -367.453125 Z M 365.0625 -366.25 L 344.640625 -312.21875 C 348.640625 -320.625 352.34375 -329.03125 355.75 -337.4375 C 359.15625 -345.84375 362.457031 -354.25 365.65625 -362.65625 Z M 349.453125 -421.5 L 357.25 -401.6875 L 360.25 -402.28125 L 353.046875 -421.5 Z M 114.6875 -389.078125 L 113.484375 -371.0625 C 113.484375 -367.0625 113.082031 -361.65625 112.28125 -354.84375 L 118.890625 -390.28125 Z M 320.03125 -376.46875 L 335.640625 -413.6875 L 333.234375 -413.6875 Z M 404.6875 -417.296875 L 390.875 -440.109375 L 392.078125 -433.5 Z M 378.859375 -373.46875 L 377.671875 -371.0625 L 380.0625 -366.25 L 380.671875 -369.265625 Z M 378.859375 -373.46875 "/></g></g></g></svg>